<?xml version="1.0" standalone="no"?><!DOCTYPE svg PUBLIC "-//W3C//DTD SVG 1.1//EN" "http://www.w3.org/Graphics/SVG/1.1/DTD/svg11.dtd"><svg t="1604027271478" class="icon" viewBox="0 0 1024 1024" version="1.1" xmlns="http://www.w3.org/2000/svg" p-id="912" xmlns:xlink="http://www.w3.org/1999/xlink" width="200" height="200"><defs><style type="text/css"></style></defs><path d="M164.08 602.64C105.28 552.4 71.36 477.52 70.96 397.12c-0.24-36.8 6.64-72.72 20.48-106.8 13.12-32.4 32.16-61.44 56.56-86.24 45.84-46.48 105.84-72.08 169.04-72.08 76.72 0 150 37.6 191.2 98.08l3.28 4.88 3.28-4.88C556 169.6 628.8 132 704.96 132c62.64 0 122.32 25.44 167.92 71.6 24.48 24.8 43.52 53.84 56.56 86.4 13.84 34.16 20.72 70.24 20.56 107.2-0.32 80.8-34 155.76-92.48 205.6l-345.92 288.08-347.52-288.24z m152.96-414.56c-48.24 0-94.32 19.76-129.84 55.68a207.392 207.392 0 0 0-44.64 68 220.4 220.4 0 0 0-16.32 85.28c0.4 63.84 27.12 123.12 73.36 162.72l311.84 258.56 310.48-258.56c46-39.36 72.4-98.72 72.64-162.88 0.24-29.52-5.28-58.32-16.32-85.6-10.32-25.6-25.28-48.48-44.56-68.08-35.12-35.6-80.88-55.2-128.8-55.2-58.08 0-113.44 28.32-144.48 73.84l-48.88 71.84-48.88-71.84c-14.96-22-36.32-40.56-61.84-53.52a185.024 185.024 0 0 0-83.76-20.24z" p-id="913"></path></svg>