<?xml version="1.0" standalone="no"?><!DOCTYPE svg PUBLIC "-//W3C//DTD SVG 1.1//EN" "http://www.w3.org/Graphics/SVG/1.1/DTD/svg11.dtd"><svg t="1604033715573" class="icon" viewBox="0 0 1024 1024" version="1.1" xmlns="http://www.w3.org/2000/svg" p-id="912" xmlns:xlink="http://www.w3.org/1999/xlink" width="200" height="200"><defs><style type="text/css"></style></defs><path d="M181.76 606.56c-55.76-47.6-88-118.72-88.32-195.04-0.24-34.96 6.32-69.04 19.44-101.36 12.4-30.72 30.48-58.24 53.68-81.76C210.08 184.32 267.04 160 326.96 160c72.8 0 142.32 35.68 181.44 93.04l3.12 4.64 3.12-4.64C553.68 195.68 622.72 160 694.96 160c59.44 0 116.08 24.16 159.36 67.92a246.72 246.72 0 0 1 53.68 81.92c13.12 32.4 19.68 66.64 19.44 101.68-0.32 76.64-32.24 147.76-87.76 195.04L511.52 880 181.76 606.56z" p-id="913"></path></svg>