<?xml version="1.0" standalone="no"?><!DOCTYPE svg PUBLIC "-//W3C//DTD SVG 1.1//EN" "http://www.w3.org/Graphics/SVG/1.1/DTD/svg11.dtd"><svg t="1604365760217" class="icon" viewBox="0 0 1024 1024" version="1.1" xmlns="http://www.w3.org/2000/svg" p-id="4902" xmlns:xlink="http://www.w3.org/1999/xlink" width="200" height="200"><defs><style type="text/css"></style></defs><path d="M744 64l120 120v696c0 44.183-35.817 80-80 80H240c-44.183 0-80-35.817-80-80V144c0-44.183 35.817-80 80-80h504z m-40 40H240c-22.091 0-40 17.909-40 40v736c0 22.091 17.909 40 40 40h544c22.091 0 40-17.909 40-40V224H704V104z m58 660v40H342v-40h420z m-460 0v40h-40v-40h40z m460-100v40H342v-40h420z m-460 0v40h-40v-40h40z m460-100v40H342v-40h420z m-460 0v40h-40v-40h40z m210-200c33.137 0 60 26.863 60 60s-26.863 60-60 60-60-26.863-60-60 26.863-60 60-60z m0 20c-22.091 0-40 17.909-40 40s17.909 40 40 40 40-17.909 40-40-17.909-40-40-40zM402 284c5.523 0 10 4.477 10 10s-4.477 10-10 10H302c-5.523 0-10-4.477-10-10s4.477-10 10-10h100z m320 0c5.523 0 10 4.477 10 10s-4.477 10-10 10H622c-5.523 0-10-4.477-10-10s4.477-10 10-10h100z" p-id="4903" /></svg>
